<?xml version="1.0" encoding="utf-8"?>
<!-- Generator: Adobe Illustrator 25.0.0, SVG Export Plug-In . SVG Version: 6.00 Build 0)  -->
<svg version="1.1" id="Capa_1" xmlns="http://www.w3.org/2000/svg" xmlns:xlink="http://www.w3.org/1999/xlink" x="0px" y="0px"
	 viewBox="0 0 110.27 110.75" style="enable-background:new 0 0 110.27 110.75;" xml:space="preserve">
<style type="text/css">
	.st0{fill:#FFFFFF;}
	.st1{fill:#E00C17;}
</style>
<g>
	<path class="st0" d="M92.08,110.12l-5.97-6.87c-0.31-0.36-31.69-35.98-75.79-43.77l-8.79-1.55l8.62-2.35
		c0.55-0.15,55.57-15.39,75.85-43.66l7.49-10.44L89.52,13.7c-13.27,40.92-0.12,87.22,0.02,87.68L92.08,110.12z M18.63,57.17
		C49.89,65.05,73.9,85.53,83.97,95.3c-2.9-13.54-7.76-44.12-0.74-73.9C64.71,40.52,33.03,52.47,18.63,57.17z"/>
</g>
<polygon class="st1" points="107.4,0 110.27,3.48 47.95,66.35 "/>
</svg>
