<?xml version="1.0" encoding="utf-8"?>
<!-- Generator: Adobe Illustrator 25.0.0, SVG Export Plug-In . SVG Version: 6.00 Build 0)  -->
<svg version="1.1" id="Capa_1" xmlns="http://www.w3.org/2000/svg" xmlns:xlink="http://www.w3.org/1999/xlink" x="0px" y="0px"
	 viewBox="0 0 318.8 126.7" style="enable-background:new 0 0 318.8 126.7;" xml:space="preserve">
<style type="text/css">
	.st0{fill:#E00C17;}
</style>
<path class="st0" d="M318.8,8.2h-10.9V0.7h-297v7.5H0v111h10.9v7.5h297v-7.5h10.9V8.2z M13.9,4.4h291v3.7h-291
	C13.9,8.2,13.9,4.4,13.9,4.4z M302,115.4H16.7V11.9H302V115.4L302,115.4z M3,115.4V11.9h7.9h2.8v103.5h-2.9
	C10.9,115.4,3,115.4,3,115.4z M304.9,123h-291v-3.7h291V123z M315.8,115.4h-7.9H305V11.9h2.9h7.9V115.4z"/>
</svg>
