<?xml version="1.0" encoding="utf-8"?>
<!-- Generator: Adobe Illustrator 25.0.0, SVG Export Plug-In . SVG Version: 6.00 Build 0)  -->
<svg version="1.1" id="Capa_1" xmlns="http://www.w3.org/2000/svg" xmlns:xlink="http://www.w3.org/1999/xlink" x="0px" y="0px"
	 viewBox="0 0 170.08 170.08" style="enable-background:new 0 0 170.08 170.08;" xml:space="preserve">
<style type="text/css">
	.st0{fill:#FFFFFF;}
	.st1{fill:#E00C17;}
</style>
<g>
	<g>
		<path class="st0" d="M17.53,127.31c-1.7,0.05-3.04,0.57-4,1.71c-0.7,0.82-1.06,1.82-1.06,2.99c0,1.81,1.04,3.52,3.12,5.12
			c0.79,0.63,2.43,1.67,4.94,3.14c2.72,1.6,4.66,2.98,5.82,4.15c1.95,1.94,2.92,4.14,2.92,6.58c0,2.83-1.12,5.12-3.36,6.85
			c-2.06,1.52-4.49,2.29-7.27,2.32c-1.26,0-2.95-0.35-5.06-1.06c-1.34-0.44-2.25-0.67-2.73-0.67c-0.69,0-1.16,0.3-1.42,0.89
			c-0.1,0.25-0.14,0.51-0.12,0.79H8.17l-1.5-10.75h1.15c1.67,4.19,3.81,6.9,6.41,8.13c1.18,0.56,2.48,0.84,3.91,0.84
			c1.88,0,3.41-0.61,4.59-1.83c0.97-1.02,1.45-2.28,1.45-3.78c0-2.16-1.05-4.07-3.14-5.73c-0.84-0.68-2.43-1.69-4.79-3.04
			c-2.49-1.42-4.27-2.64-5.33-3.68c-1.87-1.81-2.8-3.96-2.8-6.43c0-2.75,0.97-4.93,2.92-6.55c1.67-1.37,3.73-2.05,6.19-2.05
			c0,0,5.56-0.27,8.56,1.89c3,2.15,2.41,5.57,2.18,6.32s-0.98,1.76-2.67,1.76c-1.69,0-2.61-1.5-2.84-2.87S22.39,127.17,17.53,127.31
			z"/>
	</g>
	<g>
		<path class="st0" d="M70.49,157.12c-1.81,2.42-3.58,2.59-5.3,2.59c-1.72,0-2.3-1.21-2.3-3.63c-2.04,1.59-3.41,2.58-4.11,2.96
			c-0.86,0.45-2.13,0.67-3.24,0.67c-1.59,0-2.87-0.52-3.84-1.55c-0.97-1.03-1.46-2.41-1.46-4.13c0-1.81,0.75-3.34,2.24-4.58
			c1.81-1.56,5.19-3.18,10.12-4.87v-0.91c0-2.07,0.17-3.85-0.5-4.74c-0.67-0.89-1.72-1.34-3.15-1.34c-0.99,0-1.77,0.26-2.36,0.76
			c-0.44,0.38-0.81,0.83-0.99,1.37c-0.1,0.29-0.11,0.59-0.08,0.89l0.14,1.43c0.06,1.53-1.11,2.29-2.51,2.29
			c-1.37,0-2.05-0.78-2.05-2.34c0-1.69,0.83-3.04,2.48-4.06c1.53-0.99,3.41-1.71,5.63-1.71c2.99,0,5.05,0.92,6.16,2.28
			c0.86,1.05,1.29,2.88,1.29,5.49v7.59c0,1.91,0.05,3.2,0.14,3.87c0.13,0.8,0.77,1.45,1.34,1.45c0.45,0,1.03,0.13,2.33-1.17V157.12z
			 M62.61,153.44v-7.43c-3.3,1.34-5.52,2.58-6.65,3.72c-0.86,0.86-1.28,1.91-1.28,3.15c0,1.15,0.31,2.1,0.94,2.87
			c0.63,0.76,1.4,1.16,2.32,1.19c0.75,0.02,1.67-0.31,2.75-1C61.27,155.57,62.21,154.38,62.61,153.44z"/>
	</g>
	<g>
		<g>
			<path class="st1" d="M162.85,148.42c-1.51,2.02-2.99,2.49-4.42,2.49s-2.15-1.01-2.15-3.03c-1.7,1.33-2.84,2.15-3.43,2.47
				c-0.72,0.37-1.54,0.56-2.47,0.56c-1.33,0-2.4-0.43-3.21-1.29c-0.81-0.86-1.22-2.01-1.22-3.45c0-1.51,0.62-2.79,1.87-3.83
				c1.51-1.3,4.33-2.66,8.45-4.06v-0.76c0-1.73-0.28-2.96-0.84-3.71c-0.56-0.74-1.43-1.12-2.63-1.12c-0.82,0-1.48,0.21-1.97,0.64
				c-0.49,0.43-0.76,0.97-0.82,1.63l0.04,1.2c0.05,1.28-0.51,1.91-1.67,1.91c-1.14,0-1.71-0.65-1.71-1.95
				c0-1.41,0.69-2.54,2.07-3.39c1.28-0.82,2.84-1.24,4.7-1.24c2.5,0,4.21,0.57,5.14,1.71c0.72,0.88,1.08,2.4,1.08,4.58v6.34
				c0,1.59,0.04,2.67,0.12,3.23c0.11,0.66,0.27,1,0.75,1c0.37,0,1.23,0,2.32-1.09V148.42z M156.27,146.56v-7.09
				c-2.87,1.12-4.8,2.15-5.78,3.11c-0.74,0.72-1.12,1.59-1.12,2.63c0,0.96,0.27,1.75,0.82,2.39c0.54,0.64,1.22,0.97,2.01,1
				C153.22,148.62,154.57,147.95,156.27,146.56z"/>
		</g>
	</g>
	<g>
		<path class="st0" d="M109.17,159.24c0,4.27-1.76,7.13-4.98,9.37c-1.94,1.08-2.96,1.47-5.05,1.47c-1.94,0-3.91-0.42-5.38-1.37
			c-1.36-0.88-1.83-2.27-1.83-3.48c0-0.45,0.2-0.89,0.6-1.34c0.4-0.45,0.86-0.67,1.38-0.67c0.94,0,1.87,0.33,2.42,1.05
			c0.55,0.72,0.85,1.61,1.37,2.31c0.81,0.76,1.77,1.47,3.16,1.47c1.71,0,2.3-0.54,3.06-1.94c0.76-1.4,1.14-3.66,1.14-6.78v-3.12
			c-1.62,2.45-4.26,3.53-6.58,3.53c-2.52,0-4.69-0.79-6.51-2.87c-1.82-2.08-2.73-4.67-2.73-7.76c0-3.18,0.95-6.02,2.85-8.5
			c2.1-2.77,4.79-4.17,8.08-4.2c2,0,4.55,0.47,5.81,1.71l3.19-1.89V159.24z M105.05,154.5v-10.88c0-1.37-0.45-2.63-1.35-3.77
			c-1.03-1.24-2.31-1.89-3.82-1.96c-1.71-0.06-3.14,0.75-4.31,2.44c-1.19,1.78-1.79,4.06-1.79,6.83c0,3.31,0.76,5.89,2.27,7.74
			c1.29,1.56,2.84,1.77,4.64,1.8C102.22,156.69,103.67,155.96,105.05,154.5z"/>
	</g>
	<g>
		<path class="st0" d="M138.26,159.29h-11.7v-0.92c1.43,0,3.22-0.28,3.63-0.85c0.41-0.56,0.62-1.67,0.62-3.31v-12.33
			c0-1.77-0.19-2.88-0.57-3.34c-0.48-0.55-1.42-0.82-2.82-0.82v-0.92h10.83v0.92c-1.43,0-2.34,0.26-2.72,0.77
			c-0.45,0.61-0.67,1.74-0.67,3.38v12.33c0,1.77,0.19,2.89,0.57,3.34c0.48,0.55,1.42,0.82,2.82,0.82V159.29z"/>
	</g>
	<path class="st0" d="M49.16,157.75c-0.36-0.4-0.53-1.31-0.53-2.71V146c0-2.99-0.26-5.15-0.78-6.49c-0.87-2.18-2.57-3.27-5.09-3.27
		c-2.91,0-5.4,1.5-7.47,4.49v-9.52c0-1.65,0.22-1.88,0.67-2.49c0.39-0.52,1.3-0.78,2.75-0.78V127H27.79v0.92
		c1.41,0,2.36,0.28,2.84,0.83c0.39,0.45,0.58,1.57,0.58,3.36v12.72c0,0.33-0.01,0.64-0.02,0.92v4.19v5.1c0,1.34-0.19,2.24-0.58,2.71
		c-0.45,0.56-1.41,0.84-2.86,0.84v0.89h10.85v-0.89c-1.58,0-2.3-0.25-2.75-0.75c-0.36-0.4-0.53-1.34-0.53-2.8v-6.01v-6.81
		c1.87-2.08,3.73-3.13,5.57-3.13c1.71,0,2.81,0.79,3.3,2.39c0.23,0.78,0.34,2.29,0.34,4.53v9.04c0,1.46-0.24,2.42-0.73,2.87
		c-0.48,0.45-1.26,0.68-2.72,0.68v0.89h10.65v-0.89C50.23,158.59,49.58,158.31,49.16,157.75z"/>
	<path class="st0" d="M151.72,130.87c0.07,0,7.32-7.19,7.32-7.19s0.46-0.41,1.17-0.41s1.54,0.74,1.54,1.39s-0.41,1.28-1.26,1.83
		s-6.63,4.41-6.63,4.41L151.72,130.87z"/>
	<g>
		<path class="st0" d="M91.16,158.68c-1.25-0.15-2.09-0.41-2.52-0.78c-0.48-0.46-0.72-1.41-0.72-2.86v-11.12
			c0-1.78-0.17-3.27-0.8-4.5c-1.02-2-2.7-3.01-5.02-3.01c-0.91,0-1.73,0.15-2.47,0.44c-1.17,0.47-2.8,1.68-4.87,3.62v-3.96
			l-0.37-0.1c-1.95,0.72-4.17,1.47-6.88,2.25v0.86c0.26-0.13,0.62-0.2,1.26-0.2c0.46,0,0.82,0.09,1.09,0.27
			c0.53,0.34,0.79,1.32,0.79,2.93v12.51c0,0,0,0.01,0,0.01v4.39h8.1v-0.76c-1.27-0.15-2.72-0.41-3.13-0.78
			c-0.48-0.46-0.72-1.41-0.72-2.86v-13.03c0.86-0.8,1.57-1.39,2.13-1.78c0.99-0.7,1.86-1.05,2.93-1.05c0.13,0,0.26,0,0.37,0
			c2.21,0.16,3.31,1.78,3.31,4.84v11.02c0,0,0,0,0,0.01v4.39h7.51V158.68z"/>
	</g>
	<g>
		<path class="st0" d="M127.15,136.78v7.78h-1.03c0,0-0.04-2-1.05-3.51c-0.61-0.91-1.57-1.64-3.08-1.64c-0.31,0-0.6,0.02-0.88,0.07
			c-3.24,0.55-3.8,4.1-3.8,4.1v11.36c0,1.5,0.32,2.49,0.96,2.98c0.58,0.46,1.69,0.72,3.34,0.79v0.76h-12.16v-0.76
			c1.58-0.3,2.57-0.63,2.97-0.99c0.4-0.36,0.6-1.08,0.62-2.17v-12.94c0-1.61-0.11-2.21-0.71-2.63c-0.21-0.12-0.53-0.26-0.86-0.26
			c-0.54,0-1.24-0.02-1.92,0.06v-0.79c2.58-0.82,5.08-1.73,7.5-2.74l0.25,0.1v4.26c0,0,0.01-0.01,0.02-0.03
			c0.01-0.01,0.02-0.02,0.02-0.03c0.01-0.02,0.02-0.03,0.03-0.05c0.02-0.03,0.05-0.06,0.07-0.09c0.07-0.1,0.14-0.19,0.21-0.29
			c0.03-0.04,0.05-0.07,0.08-0.1c0.03-0.04,0.06-0.08,0.09-0.12c0.64-0.81,1.84-2.1,3.38-2.79c1.12-0.51,2.46-0.61,3.63-0.58
			C125.82,136.56,126.67,136.7,127.15,136.78z"/>
		<path class="st0" d="M117.46,140.41c-0.03,0.04-0.06,0.09-0.1,0.14c0.01-0.01,0.02-0.03,0.03-0.05
			C117.41,140.48,117.43,140.44,117.46,140.41z"/>
	</g>
	<path class="st1" d="M163.41,150.58l-3.85,14.57l-1.69,0.07c0,0,0.95-5.42-2.01-6.02h-17.42v-4.83c0-0.09,0.01-0.18,0.01-0.28
		v-22.32c0-1.66-0.24-2.78-0.71-3.34c-0.49-0.55-1.53-0.9-3.12-1.06c-0.16-0.02-0.33-0.03-0.51-0.05v-0.94h9.46v4.72
		c0,0.02,0,0.05,0,0.07v24.07c0,0.82,0.23,1.37,0.68,1.62c0.49,0.28,1.69,0.41,3.61,0.41h3.35c4.07,0,6.95-0.95,8.64-2.83
		c0.73-0.81,1.51-2.09,2.32-3.85H163.41z"/>
	<path class="st0" d="M123.12,77.3c-0.09-36.68,9.34-48.57,11.3-50.9c-1.73,1.81-11.71,10.46-45.45,11.7
		c-38.82,1.06-50.36-10.01-51.6-11.34c11.96,13.65,11.53,48.11,11.53,48.11c0.69,35.18-10.94,48.4-11.29,48.8
		c1.75-1.37,5.81-3.99,11.4-6.1c3.29-1.24,7.31-2.17,11.15-2.93c12.89-2.57,26.9-2.21,26.9-2.21c37.77,0.34,47.46,11.49,47.61,11.53
		C122.28,109.74,123.12,77.3,123.12,77.3z M128.33,116.85c-0.32-0.29-10.74-9.47-41.8-9.73c-29.31-0.33-41.95,8.46-43.26,9.43
		c0.99-0.8,8.03-7.54,8.92-37.77c2.57-29.56-9.81-47.13-10.16-47.62c0.35,0.29,10.89,8.93,43.28,7.99
		c36.23-1.57,45.69-9.04,47.63-11.12c-11.56,14.37-13.67,37.61-12.69,56.49C121.75,113.2,128.12,116.51,128.33,116.85z"/>
	<path d="M43.18,116.62c0.02-0.02,0.05-0.04,0.09-0.07C43.23,116.58,43.2,116.6,43.18,116.62z"/>
	<polygon class="st1" points="143.66,0 147.08,4.14 72.84,79.04 	"/>
</g>
</svg>
