<?xml version="1.0" encoding="utf-8"?>
<!-- Generator: Adobe Illustrator 25.0.0, SVG Export Plug-In . SVG Version: 6.00 Build 0)  -->
<svg version="1.1" id="Capa_1" xmlns="http://www.w3.org/2000/svg" xmlns:xlink="http://www.w3.org/1999/xlink" x="0px" y="0px"
	 viewBox="0 0 170.08 170.08" style="enable-background:new 0 0 170.08 170.08;" xml:space="preserve">
<style type="text/css">
	.st0{fill:#FFFFFF;}
	.st1{fill:#E00C17;}
</style>
<circle cx="85.04" cy="85.04" r="85.04"/>
<g>
	<g>
		<path class="st0" d="M37.78,114.63c-1.19,0.04-2.13,0.4-2.8,1.2c-0.49,0.57-0.74,1.27-0.74,2.09c0,1.27,0.73,2.46,2.18,3.58
			c0.55,0.44,1.7,1.17,3.46,2.2c1.9,1.12,3.26,2.09,4.07,2.91c1.37,1.36,2.04,2.9,2.04,4.61c0,1.98-0.78,3.58-2.35,4.8
			c-1.44,1.06-3.14,1.6-5.09,1.62c-0.88,0-2.07-0.25-3.54-0.74c-0.94-0.31-1.58-0.47-1.91-0.47c-0.48,0-0.81,0.21-0.99,0.62
			c-0.07,0.18-0.1,0.36-0.08,0.55h-0.8l-1.05-7.53h0.81c1.17,2.93,2.67,4.83,4.49,5.69c0.83,0.39,1.74,0.59,2.74,0.59
			c1.32,0,2.39-0.43,3.21-1.28c0.68-0.71,1.02-1.6,1.02-2.65c0-1.51-0.74-2.85-2.2-4.01c-0.59-0.48-1.7-1.18-3.35-2.13
			c-1.74-0.99-2.99-1.85-3.73-2.58c-1.31-1.27-1.96-2.77-1.96-4.5c0-1.93,0.68-3.45,2.04-4.59c1.17-0.96,2.61-1.44,4.33-1.44
			c0,0,3.89-0.19,5.99,1.32c2.1,1.51,1.69,3.9,1.53,4.42c-0.16,0.53-0.69,1.23-1.87,1.23c-1.18,0-1.83-1.05-1.99-2.01
			C41.07,117.2,41.18,114.53,37.78,114.63z"/>
	</g>
	<g>
		<path class="st0" d="M74.85,135.5c-1.27,1.69-2.51,1.81-3.71,1.81c-1.2,0-1.61-0.85-1.61-2.54c-1.43,1.11-2.39,1.81-2.88,2.07
			c-0.6,0.32-1.49,0.47-2.27,0.47c-1.11,0-2.01-0.36-2.69-1.09s-1.02-1.69-1.02-2.89c0-1.27,0.53-2.34,1.57-3.21
			c1.27-1.09,3.63-2.23,7.08-3.41v-0.64c0-1.45,0.12-2.7-0.35-3.32c-0.47-0.62-1.2-0.94-2.21-0.94c-0.69,0-1.24,0.18-1.65,0.53
			c-0.31,0.27-0.57,0.58-0.69,0.96c-0.07,0.2-0.08,0.41-0.06,0.62l0.1,1c0.04,1.07-0.78,1.6-1.76,1.6c-0.96,0-1.44-0.55-1.44-1.64
			c0-1.18,0.58-2.13,1.74-2.84c1.07-0.69,2.39-1.2,3.94-1.2c2.09,0,3.54,0.64,4.31,1.6c0.6,0.74,0.9,2.02,0.9,3.84v5.31
			c0,1.34,0.04,2.24,0.1,2.71c0.09,0.56,0.54,1.02,0.94,1.02c0.32,0,0.72,0.09,1.63-0.82v0.97H74.85z M69.34,132.92v-5.2
			c-2.31,0.94-3.86,1.81-4.66,2.6c-0.6,0.6-0.9,1.34-0.9,2.21c0,0.81,0.22,1.47,0.66,2.01c0.44,0.53,0.98,0.81,1.62,0.83
			c0.53,0.01,1.17-0.22,1.93-0.7C68.4,134.41,69.06,133.58,69.34,132.92z"/>
	</g>
	<g>
		<g>
			<path class="st1" d="M139.51,129.41c-1.06,1.41-2.09,1.74-3.09,1.74c-1,0-1.51-0.71-1.51-2.12c-1.19,0.93-1.99,1.51-2.4,1.73
				c-0.5,0.26-1.08,0.39-1.73,0.39c-0.93,0-1.68-0.3-2.25-0.9c-0.57-0.6-0.85-1.41-0.85-2.42c0-1.06,0.43-1.95,1.31-2.68
				c1.06-0.91,3.03-1.86,5.92-2.84v-0.53c0-1.21-0.2-2.07-0.59-2.6c-0.39-0.52-1-0.78-1.84-0.78c-0.57,0-1.04,0.15-1.38,0.45
				c-0.34,0.3-0.53,0.68-0.57,1.14l0.03,0.84c0.04,0.9-0.36,1.34-1.17,1.34c-0.8,0-1.2-0.46-1.2-1.37c0-0.99,0.48-1.78,1.45-2.37
				c0.9-0.57,1.99-0.87,3.29-0.87c1.75,0,2.95,0.4,3.6,1.2c0.5,0.62,0.76,1.68,0.76,3.21v4.44c0,1.11,0.03,1.87,0.08,2.26
				c0.08,0.46,0.19,0.7,0.53,0.7c0.26,0,0.86,0,1.62-0.76L139.51,129.41L139.51,129.41z M134.9,128.1v-4.96
				c-2.01,0.78-3.36,1.51-4.05,2.18c-0.52,0.5-0.78,1.11-0.78,1.84c0,0.67,0.19,1.23,0.57,1.67c0.38,0.45,0.85,0.68,1.41,0.7
				C132.77,129.55,133.71,129.08,134.9,128.1z"/>
		</g>
	</g>
	<g>
		<path class="st0" d="M101.93,136.98c0,2.99-1.23,4.99-3.49,6.56c-1.36,0.76-2.07,1.03-3.54,1.03c-1.36,0-2.74-0.29-3.77-0.96
			c-0.95-0.62-1.28-1.59-1.28-2.44c0-0.32,0.14-0.62,0.42-0.94s0.6-0.47,0.97-0.47c0.66,0,1.31,0.23,1.69,0.74
			c0.39,0.5,0.6,1.13,0.96,1.62c0.57,0.53,1.24,1.03,2.21,1.03c1.2,0,1.61-0.38,2.14-1.36c0.53-0.98,0.8-2.56,0.8-4.75v-2.18
			c-1.13,1.72-2.98,2.47-4.61,2.47c-1.76,0-3.28-0.55-4.56-2.01c-1.27-1.46-1.91-3.27-1.91-5.43c0-2.23,0.67-4.21,2-5.95
			c1.47-1.94,3.35-2.92,5.66-2.94c1.4,0,3.19,0.33,4.07,1.2l2.23-1.32L101.93,136.98L101.93,136.98z M99.05,133.66v-7.62
			c0-0.96-0.32-1.84-0.95-2.64c-0.72-0.87-1.62-1.32-2.67-1.37c-1.2-0.04-2.2,0.53-3.02,1.71c-0.83,1.25-1.25,2.84-1.25,4.78
			c0,2.32,0.53,4.12,1.59,5.42c0.9,1.09,1.99,1.24,3.25,1.26C97.07,135.2,98.08,134.69,99.05,133.66z"/>
	</g>
	<g>
		<path class="st0" d="M122.29,137.02h-8.19v-0.64c1,0,2.25-0.2,2.54-0.6c0.29-0.39,0.43-1.17,0.43-2.32v-8.63
			c0-1.24-0.13-2.02-0.4-2.34c-0.34-0.39-0.99-0.57-1.97-0.57v-0.64h7.58v0.64c-1,0-1.64,0.18-1.9,0.54
			c-0.32,0.43-0.47,1.22-0.47,2.37v8.63c0,1.24,0.13,2.02,0.4,2.34c0.34,0.39,0.99,0.57,1.97,0.57L122.29,137.02L122.29,137.02z"/>
	</g>
	<path class="st0" d="M59.92,135.94c-0.25-0.28-0.37-0.92-0.37-1.9v-6.33c0-2.09-0.18-3.61-0.55-4.54c-0.61-1.53-1.8-2.29-3.56-2.29
		c-2.04,0-3.78,1.05-5.23,3.14v-6.66c0-1.16,0.15-1.32,0.47-1.74c0.27-0.36,0.91-0.55,1.93-0.55v-0.66h-7.64v0.64
		c0.99,0,1.65,0.2,1.99,0.58c0.27,0.32,0.41,1.1,0.41,2.35v8.9c0,0.23-0.01,0.45-0.01,0.64v2.93v3.57c0,0.94-0.13,1.57-0.41,1.9
		c-0.32,0.39-0.99,0.59-2,0.59v0.62h7.6v-0.62c-1.11,0-1.61-0.18-1.93-0.53c-0.25-0.28-0.37-0.94-0.37-1.96v-4.21v-4.77
		c1.31-1.46,2.61-2.19,3.9-2.19c1.2,0,1.97,0.55,2.31,1.67c0.16,0.55,0.24,1.6,0.24,3.17v6.33c0,1.02-0.17,1.69-0.51,2.01
		c-0.34,0.32-0.88,0.48-1.9,0.48v0.62h7.46v-0.62C60.67,136.53,60.22,136.33,59.92,135.94z"/>
	<path class="st0" d="M131.72,117.12c0.05,0,5.12-5.03,5.12-5.03s0.32-0.29,0.82-0.29s1.08,0.52,1.08,0.97s-0.29,0.9-0.88,1.28
		c-0.6,0.39-4.64,3.09-4.64,3.09L131.72,117.12z"/>
	<g>
		<path class="st0" d="M89.32,136.59c-0.88-0.1-1.46-0.29-1.76-0.55c-0.34-0.32-0.5-0.99-0.5-2v-7.78c0-1.25-0.12-2.29-0.56-3.15
			c-0.71-1.4-1.89-2.11-3.51-2.11c-0.64,0-1.21,0.1-1.73,0.31c-0.82,0.33-1.96,1.18-3.41,2.53v-2.77L77.58,121
			c-1.37,0.5-2.92,1.03-4.82,1.58v0.6c0.18-0.09,0.43-0.14,0.88-0.14c0.32,0,0.57,0.06,0.76,0.19c0.37,0.24,0.55,0.92,0.55,2.05
			v8.76v0.01v3.07h5.67v-0.53c-0.89-0.11-1.9-0.29-2.19-0.55c-0.34-0.32-0.5-0.99-0.5-2v-9.12c0.6-0.56,1.1-0.97,1.49-1.25
			c0.69-0.49,1.3-0.74,2.05-0.74c0.09,0,0.18,0,0.26,0c1.55,0.11,2.32,1.25,2.32,3.39v7.71c0,0,0,0,0,0.01v3.07h5.26L89.32,136.59
			L89.32,136.59z"/>
	</g>
	<g>
		<path class="st0" d="M114.52,121.26v5.45h-0.72c0,0-0.03-1.4-0.74-2.46c-0.43-0.64-1.1-1.15-2.16-1.15
			c-0.22,0-0.42,0.01-0.62,0.05c-2.27,0.39-2.66,2.87-2.66,2.87v7.95c0,1.05,0.22,1.74,0.67,2.09c0.41,0.32,1.18,0.5,2.34,0.55v0.53
			h-8.51v-0.53c1.11-0.21,1.8-0.44,2.08-0.69c0.28-0.25,0.42-0.76,0.43-1.52v-9.06c0-1.13-0.08-1.55-0.5-1.84
			c-0.15-0.08-0.37-0.18-0.6-0.18c-0.38,0-0.87-0.01-1.34,0.04v-0.55c1.81-0.57,3.56-1.21,5.25-1.92l0.18,0.07v2.98
			c0,0,0.01-0.01,0.01-0.02c0.01-0.01,0.01-0.01,0.01-0.02c0.01-0.01,0.01-0.02,0.02-0.04c0.01-0.02,0.04-0.04,0.05-0.06
			c0.05-0.07,0.1-0.13,0.15-0.2c0.02-0.03,0.04-0.05,0.06-0.07c0.02-0.03,0.04-0.06,0.06-0.08c0.45-0.57,1.29-1.47,2.37-1.95
			c0.78-0.36,1.72-0.43,2.54-0.41C113.59,121.1,114.18,121.2,114.52,121.26z"/>
		<path class="st0" d="M107.73,123.8c-0.02,0.03-0.04,0.06-0.07,0.1c0.01-0.01,0.01-0.02,0.02-0.04
			C107.7,123.85,107.71,123.82,107.73,123.8z"/>
	</g>
	<path class="st1" d="M139.9,130.92l-2.7,10.2l-1.18,0.05c0,0,0.67-3.79-1.41-4.21h-12.19v-3.38c0-0.06,0.01-0.13,0.01-0.2v-15.62
		c0-1.16-0.17-1.95-0.5-2.34c-0.34-0.39-1.07-0.63-2.18-0.74c-0.11-0.01-0.23-0.02-0.36-0.04v-0.66h6.62v3.3c0,0.01,0,0.04,0,0.05
		v16.85c0,0.57,0.16,0.96,0.48,1.13c0.34,0.2,1.18,0.29,2.53,0.29h2.35c2.85,0,4.87-0.67,6.05-1.98c0.51-0.57,1.06-1.46,1.62-2.7
		L139.9,130.92L139.9,130.92z"/>
	<path class="st0" d="M111.7,79.62c-0.06-25.68,6.54-34,7.91-35.63c-1.21,1.27-8.2,7.32-31.82,8.19
		c-27.17,0.74-35.25-7.01-36.12-7.94c8.37,9.56,8.07,33.68,8.07,33.68c0.48,24.63-7.66,33.88-7.9,34.16
		c1.23-0.96,4.07-2.79,7.98-4.27c2.3-0.87,5.12-1.52,7.81-2.05c9.02-1.8,18.83-1.55,18.83-1.55c26.44,0.24,33.22,8.04,33.33,8.07
		C111.11,102.33,111.7,79.62,111.7,79.62z M115.34,107.31c-0.22-0.2-7.52-6.63-29.26-6.81c-20.52-0.23-29.37,5.92-30.28,6.6
		c0.69-0.56,5.62-5.28,6.24-26.44c1.8-20.69-6.87-32.99-7.11-33.33c0.25,0.2,7.62,6.25,30.3,5.59c25.36-1.1,31.98-6.33,33.34-7.78
		c-8.09,10.06-9.57,26.33-8.88,39.54C110.74,104.75,115.2,107.07,115.34,107.31z"/>
	<path d="M55.74,107.15c0.01-0.01,0.03-0.03,0.06-0.05C55.77,107.12,55.75,107.13,55.74,107.15z"/>
	<polygon class="st1" points="126.07,25.51 128.47,28.41 76.5,80.84 	"/>
</g>
</svg>
